<?xml version="1.0" encoding="UTF-8" standalone="no"?>
<!-- Created with Inkscape (http://www.inkscape.org/) -->

<svg
   xmlns:dc="http://purl.org/dc/elements/1.1/"
   xmlns:cc="http://creativecommons.org/ns#"
   xmlns:rdf="http://www.w3.org/1999/02/22-rdf-syntax-ns#"
   xmlns:svg="http://www.w3.org/2000/svg"
   xmlns="http://www.w3.org/2000/svg"
   xmlns:sodipodi="http://sodipodi.sourceforge.net/DTD/sodipodi-0.dtd"
   xmlns:inkscape="http://www.inkscape.org/namespaces/inkscape"
   id="svg8"
   version="1.1"
   viewBox="0 0 210 297"
   height="297mm"
   width="210mm"
   inkscape:version="0.92+devel unknown"
   sodipodi:docname="l-system-9-steps.svg">
  <sodipodi:namedview
     inkscape:window-maximized="0"
     inkscape:window-y="0"
     inkscape:window-x="0"
     inkscape:window-height="1080"
     inkscape:window-width="1920"
     showgrid="true"
     inkscape:document-rotation="0"
     inkscape:current-layer="svg8"
     inkscape:document-units="mm"
     inkscape:cy="1142.9146"
     inkscape:cx="2827.3911"
     inkscape:zoom="0.17572075"
     inkscape:pageshadow="2"
     inkscape:pageopacity="0.0"
     borderopacity="1.0"
     bordercolor="#666666"
     pagecolor="#ffffff"
     id="base"
     showguides="true"
     inkscape:guide-bbox="true">
    <sodipodi:guide
       position="180,650"
       orientation="0,1"
       id="guide4745"
       inkscape:locked="false" />
    <inkscape:grid
       type="xygrid"
       id="grid5043"
       units="cm"
       spacingx="10"
       spacingy="10" />
  </sodipodi:namedview>
  <defs
     id="defs2">
    <marker
       inkscape:stockid="Arrow2Send"
       orient="auto"
       refY="0.0"
       refX="0.0"
       id="Arrow2Send"
       style="overflow:visible;"
       inkscape:isstock="true">
      <path
         id="path4780"
         style="fill-rule:evenodd;stroke-width:0.625;stroke-linejoin:round;stroke:#000000;stroke-opacity:1;fill:#000000;fill-opacity:1"
         d="M 8.7185878,4.0337352 L -2.2072895,0.016013256 L 8.7185884,-4.0017078 C 6.9730900,-1.6296469 6.9831476,1.6157441 8.7185878,4.0337352 z "
         transform="scale(0.3) rotate(180) translate(-2.3,0)" />
    </marker>
    <marker
       inkscape:stockid="Arrow1Mend"
       orient="auto"
       refY="0.0"
       refX="0.0"
       id="Arrow1Mend"
       style="overflow:visible;"
       inkscape:isstock="true">
      <path
         id="path4756"
         d="M 0.0,0.0 L 5.0,-5.0 L -12.5,0.0 L 5.0,5.0 L 0.0,0.0 z "
         style="fill-rule:evenodd;stroke:#000000;stroke-width:1pt;stroke-opacity:1;fill:#000000;fill-opacity:1"
         transform="scale(0.4) rotate(180) translate(10,0)" />
    </marker>
  </defs>
  <metadata
     id="metadata5">
    <rdf:RDF>
      <cc:Work
         rdf:about="">
        <dc:format>image/svg+xml</dc:format>
        <dc:type
           rdf:resource="http://purl.org/dc/dcmitype/StillImage" />
        <dc:title></dc:title>
      </cc:Work>
    </rdf:RDF>
  </metadata>
  <g
     inkscape:label="Layer 1"
     inkscape:groupmode="layer"
     id="layer1" />
  <path
     id="path4450"
     style="fill:none;fill-opacity:1;stroke:#000000;stroke-width:2.5;stroke-linecap:round;stroke-linejoin:round;stroke-miterlimit:4;stroke-dasharray:none;stroke-dashoffset:0;stroke-opacity:1"
     d="m 98.166674,-154.56031 v -148.4397 148.4397"
     inkscape:connector-curvature="0" />
  <path
     d="m 119.31958,116.70277 0.52917,-0.91654 -0.52917,-0.91655 -0.52917,0.91655 0.52917,0.91654"
     style="fill:none;fill-opacity:1;stroke:#000000;stroke-width:2.50000007;stroke-linecap:butt;stroke-linejoin:miter;stroke-opacity:1;stroke-miterlimit:4;stroke-dasharray:none;stroke-dashoffset:0"
     id="path4462"
     inkscape:connector-curvature="0" />
  <path
     id="path4476"
     style="fill:none;fill-opacity:1;stroke:#000000;stroke-width:2.5;stroke-linecap:round;stroke-linejoin:round;stroke-miterlimit:4;stroke-dasharray:none;stroke-dashoffset:0;stroke-opacity:1"
     d="m 297.62503,-154.55048 42.85353,-24.74158 v -49.48313 -49.48323 l -42.85353,-24.74159 v 49.48312 l -42.85353,24.7417 v 49.48313 l 42.85353,24.74158"
     inkscape:connector-curvature="0" />
  <path
     d="m 426.45835,-154.54614 14.28501,-24.74224 h 28.56993 l 14.28505,-24.74259 -14.28505,-24.74206 14.28505,-24.74231 -14.28505,-24.74262 L 455.02838,-303 h -28.57003 l 14.28501,24.74204 -14.28501,24.74262 -14.28497,24.74231 H 383.6034 l -14.28498,24.74206 14.28498,24.74259 14.28498,24.74224 h 28.56997"
     style="fill:none;fill-opacity:1;stroke:#000000;stroke-width:2.5;stroke-linecap:round;stroke-linejoin:round;stroke-miterlimit:4;stroke-dasharray:none;stroke-dashoffset:0;stroke-opacity:1"
     id="path4492"
     inkscape:connector-curvature="0" />
  <path
     id="path4510"
     style="fill:none;fill-opacity:1;stroke:#000000;stroke-width:2.5;stroke-linecap:round;stroke-linejoin:round;stroke-miterlimit:4;stroke-dasharray:none;stroke-dashoffset:0;stroke-opacity:1"
     d="m 565.87501,-154.54173 v -16.49539 l 14.28539,-8.24766 14.28542,-8.24768 14.2854,8.24768 14.28543,-8.24768 v -16.49535 -16.49541 l -14.28543,-8.24764 v -16.49545 l 14.28543,-8.24758 v -16.49546 l -14.28543,-8.24759 v -16.49543 L 594.44582,-303 580.1604,-311.24772 565.87501,-303 l 14.28539,8.24763 v 16.49543 16.49534 l -14.28539,8.24771 v 16.49533 l -14.28542,8.2477 -14.28538,-8.2477 -14.28543,8.2477 v 16.49534 l -14.2854,8.24771 v 16.49535 l 14.2854,8.24768 v 16.49534 l 14.28543,8.24771 14.28538,8.24763 14.28542,-8.24763"
     inkscape:connector-curvature="0" />
  <path
     d="m 710.58334,-154.53736 -4.76194,-8.24794 4.76194,-8.24795 4.76193,-8.24789 h 9.5239 l 4.76193,-8.24791 h 9.52392 l 4.76189,8.24791 h 9.52394 l 4.76189,-8.24791 h 9.52393 l 4.76189,-8.24797 -4.76189,-8.24791 4.76189,-8.24789 -4.76189,-8.24795 -4.76198,-8.24793 h -9.52384 l -4.76198,-8.2479 4.76198,-8.24796 4.76189,-8.24789 h 9.52393 l 4.76189,-8.24795 -4.76189,-8.24793 -4.76198,-8.2479 h -9.52384 l -4.76198,-8.24796 4.76198,-8.24792 L 748.67887,-303 h -9.52385 l -4.76198,-8.24796 h -9.52387 -9.5239 L 710.58334,-303 h 9.52389 l 4.76194,8.24789 4.76193,8.24792 -4.76193,8.24796 4.76193,8.2479 -4.76193,8.24793 h -9.5239 l -4.76193,8.24795 4.76193,8.24789 -4.76193,8.24796 -4.76194,8.2479 h -9.52387 l -4.76196,-8.2479 h -9.52387 -9.52389 l -4.76192,8.2479 4.76192,8.24793 -4.76192,8.24795 -4.76196,8.24789 h -9.52387 l -4.76195,8.24791 4.76195,8.24797 4.76192,8.24791 h 9.52391 l 4.76192,8.24789 -4.76192,8.24795 4.76192,8.24794 h 9.52389 l 4.76193,8.24784 h 9.5239 9.52387 l 4.76194,-8.24784"
     style="fill:none;fill-opacity:1;stroke:#000000;stroke-width:2.5;stroke-linecap:round;stroke-linejoin:round;stroke-miterlimit:4;stroke-dasharray:none;stroke-dashoffset:0;stroke-opacity:1"
     id="path4530"
     inkscape:connector-curvature="0" />
  <path
     id="path4552"
     style="fill:none;fill-opacity:1;stroke:#000000;stroke-width:2.5;stroke-linecap:round;stroke-linejoin:round;stroke-miterlimit:4;stroke-dasharray:none;stroke-dashoffset:0;stroke-opacity:1"
     d="m 855.29167,-154.53301 -4.7621,-2.74933 v -5.49884 -5.49875 l 4.7621,-2.74941 v -5.49877 l 4.76209,-2.7494 4.76213,2.7494 4.76203,-2.7494 v -5.49877 l 4.76206,-2.74939 4.76212,-2.74934 4.76207,2.74934 v 5.49882 l 4.76206,2.74934 4.7621,2.7494 4.76208,-2.7494 v -5.49877 l 4.76207,-2.74939 4.7621,-2.74934 4.76206,2.74934 4.76208,-2.74934 v -5.49883 -5.49877 l -4.76208,-2.74939 v -5.49877 l 4.76208,-2.7494 v -5.49877 l -4.76208,-2.74939 v -5.49877 l -4.76206,-2.7494 -4.7621,-2.74934 -4.76207,2.74934 -4.76208,-2.74934 v -5.49882 -5.49877 l 4.76208,-2.7494 v -5.49877 l 4.76207,-2.74939 4.7621,2.74939 4.76206,-2.74939 v -5.49877 l 4.76208,-2.7494 v -5.49877 l -4.76208,-2.74939 v -5.49877 l -4.76206,-2.74941 -4.7621,-2.74933 -4.76207,2.74933 -4.76208,-2.74933 v -5.49884 -5.49875 l 4.76208,-2.74941 v -5.49876 L 893.38833,-303 l -4.7621,-2.74934 -4.76206,2.74934 -4.76207,-2.74934 v -5.49882 l -4.76212,-2.74935 -4.76206,2.74935 -4.76203,-2.74935 -4.76213,2.74935 -4.76209,2.74939 V -303 l 4.76209,-2.74934 4.76213,2.74934 4.76203,2.74941 v 5.49876 l 4.76206,2.74941 v 5.49875 l -4.76206,2.74941 v 5.49876 l 4.76206,2.74941 v 5.49877 5.49882 l -4.76206,2.74934 -4.76203,-2.74934 -4.76213,2.74934 -4.76209,2.7494 v 5.49877 l 4.76209,2.74939 v 5.49877 5.49883 l -4.76209,2.74934 v 5.49882 l -4.7621,2.74934 -4.76206,-2.74934 -4.76207,2.74934 -4.76209,-2.74934 v -5.49882 l -4.76209,-2.74934 -4.76203,2.74934 -4.76213,-2.74934 -4.76208,2.74934 -4.76203,2.74939 v 5.49877 l 4.76203,2.7494 v 5.49877 5.49882 l -4.76203,2.74934 v 5.49883 l -4.76214,2.74934 -4.76206,-2.74934 -4.76205,2.74934 v 5.49882 l -4.76213,2.74934 v 5.49883 l 4.76213,2.74934 v 5.49882 l 4.76205,2.74934 4.76206,2.7494 4.76214,-2.7494 4.76203,2.7494 v 5.49877 5.49884 l -4.76203,2.74932 v 5.49884 l 4.76203,2.74933 4.76208,2.74941 4.76213,-2.74941 4.76203,2.74941 v 5.49875 l 4.76209,2.74942 4.76209,-2.74942 4.76207,2.74942 4.76206,-2.74942 4.7621,-2.74932 v -5.49884"
     inkscape:connector-curvature="0" />
  <path
     d="m 1000.5292,-154.52865 h -3.17483 l -1.5874,-2.74946 -1.5874,-2.7495 1.5874,-2.74944 -1.5874,-2.74947 1.5874,-2.74949 h 3.1748 l 1.58743,-2.74945 -1.58743,-2.7495 1.58743,-2.74944 1.5874,-2.74947 h 3.1748 l 1.5874,2.74947 h 3.1748 3.1748 l 1.5875,-2.74947 -1.5875,-2.7495 1.5875,-2.74944 1.5874,-2.74947 h 3.1748 l 1.5874,-2.74949 h 3.1748 l 1.5874,2.74949 h 3.1748 l 1.5874,2.74947 -1.5874,2.74944 1.5874,2.7495 h 3.1749 l 1.5874,2.74947 h 3.1748 3.1748 l 1.5874,-2.74947 -1.5874,-2.7495 1.5874,-2.74944 1.5874,-2.74947 h 3.1748 l 1.5874,-2.74949 h 3.1748 l 1.5874,2.74949 h 3.1748 l 1.5874,-2.74949 h 3.1749 l 1.5874,-2.74945 -1.5874,-2.74946 1.5874,-2.74948 -1.5874,-2.74947 -1.5875,-2.74946 h -3.1748 l -1.5873,-2.74948 1.5873,-2.74946 1.5874,-2.74947 h 3.1749 l 1.5874,-2.74948 -1.5874,-2.74946 -1.5875,-2.74948 h -3.1748 l -1.5873,-2.74947 1.5873,-2.74946 -1.5873,-2.74948 h -3.1749 l -1.5874,-2.74946 h -3.1748 -3.1748 l -1.5874,2.74946 h -3.1748 l -1.5874,-2.74946 -1.5874,-2.74947 1.5874,-2.74948 -1.5874,-2.74946 1.5874,-2.74946 h 3.1748 l 1.5874,-2.74949 -1.5874,-2.74946 1.5874,-2.74946 1.5874,-2.74948 h 3.1748 l 1.5874,2.74948 h 3.1748 3.1749 l 1.5873,-2.74948 -1.5873,-2.74947 1.5873,-2.74948 1.5874,-2.74946 h 3.1749 l 1.5874,-2.74946 -1.5874,-2.74948 -1.5875,-2.74947 h -3.1748 l -1.5873,-2.74946 1.5873,-2.74948 -1.5873,-2.74947 h -3.1749 l -1.5874,-2.74946 h -3.1748 -3.1748 l -1.5874,2.74946 h -3.1748 l -1.5874,-2.74946 -1.5874,-2.74948 1.5874,-2.74946 -1.5874,-2.74947 1.5874,-2.74948 h 3.1748 l 1.5874,-2.74946 -1.5874,-2.74945 1.5874,-2.74949 -1.5874,-2.74947 h -3.1748 l -1.5874,-2.74948 h -3.1748 -3.1749 L 1029.1025,-303 h -3.1748 l -1.5874,-2.74948 -1.5874,-2.74946 1.5874,-2.74947 -1.5874,-2.74948 h -3.1748 -3.1748 l -1.5874,2.74948 h -3.1749 l -1.5874,-2.74948 h -3.1748 l -1.5874,2.74948 h -3.1748 l -1.5874,2.74947 -1.58743,2.74946 1.58743,2.74948 1.5874,-2.74948 h 3.1748 3.1748 l 1.5874,2.74948 h 3.1748 l 1.5875,2.74947 -1.5875,2.74949 1.5875,2.74945 h 3.1748 l 1.5874,2.74946 1.5874,2.74948 -1.5874,2.74947 h -3.1748 l -1.5874,2.74946 -1.5875,2.74948 1.5875,2.74946 h 3.1748 l 1.5874,2.74947 1.5874,2.74948 -1.5874,2.74946 1.5874,2.74947 -1.5874,2.74948 h -3.1748 l -1.5874,2.74946 h -3.1749 l -1.5874,-2.74946 h -3.1748 l -1.5874,2.74946 h -3.1748 l -1.5874,2.74946 -1.58743,2.74948 1.58743,2.74947 h 3.1748 l 1.5874,2.74948 1.5874,2.74946 -1.5874,2.74946 1.5874,2.74949 -1.5874,2.74946 h -3.1748 l -1.5874,2.74946 1.5874,2.74948 -1.5874,2.74947 -1.58743,2.74946 h -3.1748 l -1.5874,-2.74946 h -3.1748 -3.1749 l -1.5874,2.74946 h -3.1748 l -1.5874,-2.74946 -1.58739,-2.74947 1.58739,-2.74948 -1.58739,-2.74946 h -3.17481 -3.17482 l -1.5874,2.74946 h -3.17482 l -1.5874,-2.74946 h -3.17483 l -1.58739,2.74946 h -3.17483 l -1.58739,2.74948 -1.58741,2.74947 1.58741,2.74946 h 3.17481 l 1.58741,2.74948 1.58739,2.74946 -1.58739,2.74947 1.58739,2.74948 -1.58739,2.74946 h -3.17483 l -1.58739,2.74948 1.58739,2.74947 -1.58739,2.74946 -1.58741,2.74948 h -3.17481 l -1.58741,-2.74948 h -3.17481 -3.17483 l -1.58739,2.74948 1.58739,2.74946 -1.58739,2.74947 -1.58742,2.74948 h -3.1748 l -1.58742,2.74946 1.58742,2.74945 1.58739,2.74949 h 3.17483 l 1.58739,2.74947 -1.58739,2.74944 1.58739,2.7495 h 3.17483 l 1.58739,2.74947 h 3.17483 3.17481 l 1.58741,-2.74947 h 3.17481 l 1.58741,2.74947 1.58739,2.74944 -1.58739,2.7495 1.58739,2.74945 -1.58739,2.74949 h -3.17483 l -1.58739,2.74947 1.58739,2.74944 -1.58739,2.7495 1.58739,2.74946 h 3.17483 l 1.58739,2.74945 h 3.17483 3.17481 l 1.58741,-2.74945 h 3.17481 l 1.58741,2.74945 1.5874,2.7495 -1.5874,2.74946 1.5874,2.74945 h 3.1748 3.1748 l 1.5874,-2.74945 h 3.1748 l 1.5875,2.74945 h 3.1748 l 1.5874,-2.74945 h 3.1748 l 1.58743,-2.74946 1.5874,-2.7495 -1.5874,-2.74945"
     style="fill:none;fill-opacity:1;stroke:#000000;stroke-width:2.5;stroke-linecap:round;stroke-linejoin:round;stroke-miterlimit:4;stroke-dasharray:none;stroke-dashoffset:0;stroke-opacity:1"
     id="path4576"
     inkscape:connector-curvature="0" />
  <path
     id="path4602"
     style="fill:none;fill-opacity:1;stroke:#000000;stroke-width:2.5;stroke-linecap:round;stroke-linejoin:round;stroke-miterlimit:4;stroke-dasharray:none;stroke-dashoffset:0;stroke-opacity:1"
     d="m 1149.8918,-154.44261 -1.5875,0.91651 -1.5874,-0.91651 -1.5875,-0.91652 v -1.83303 l -1.5875,-0.91652 v -1.83303 l 1.5875,-0.91652 v -1.83303 l -1.5875,-0.91652 v -1.83303 -1.83304 l 1.5875,-0.91651 1.5875,0.91651 1.5874,-0.91651 1.5875,-0.91652 v -1.83303 l -1.5875,-0.91652 v -1.83303 -1.83304 l 1.5875,-0.91651 v -1.83304 l 1.5874,-0.91651 1.5875,0.91651 1.5874,-0.91651 1.5875,0.91651 v 1.83304 l 1.5874,0.91651 1.5875,-0.91651 1.5874,0.91651 1.5875,-0.91651 1.5874,-0.91652 v -1.83303 l -1.5874,-0.91652 v -1.83303 -1.83304 l 1.5874,-0.91651 v -1.83304 l 1.5875,-0.91651 1.5874,0.91651 1.5875,-0.91651 v -1.83304 l 1.5875,-0.91651 1.5874,-0.91652 1.5875,0.91652 v 1.83303 l 1.5874,0.91652 1.5875,0.91651 1.5874,-0.91651 1.5875,0.91651 v 1.83304 1.83303 l -1.5875,0.91652 v 1.83303 l 1.5875,0.91652 1.5874,0.91651 1.5875,-0.91651 1.5874,0.91651 v 1.83304 l 1.5875,0.91651 1.5874,-0.91651 1.5875,0.91651 1.5875,-0.91651 1.5874,-0.91652 v -1.83303 l -1.5874,-0.91652 v -1.83303 -1.83304 l 1.5874,-0.91651 v -1.83304 l 1.5875,-0.91651 1.5874,0.91651 1.5875,-0.91651 v -1.83304 l 1.5874,-0.91651 1.5875,-0.91652 1.5874,0.91652 v 1.83303 l 1.5875,0.91652 1.5874,0.91651 1.5875,-0.91651 v -1.83304 l 1.5874,-0.91651 1.5875,-0.91652 1.5874,0.91652 1.5875,-0.91652 v -1.83303 -1.83304 l -1.5875,-0.91651 v -1.83304 l 1.5875,-0.91651 v -1.83304 l -1.5875,-0.91651 v -1.83304 l -1.5874,-0.91651 -1.5875,-0.91652 -1.5874,0.91652 -1.5875,-0.91652 v -1.83303 -1.83304 l 1.5875,-0.91651 v -1.83304 l 1.5874,-0.91651 1.5875,0.91651 1.5874,-0.91651 v -1.83304 l 1.5875,-0.91651 v -1.83304 l -1.5875,-0.91651 v -1.83304 l -1.5874,-0.91651 -1.5875,-0.91652 -1.5874,0.91652 -1.5875,-0.91652 v -1.83303 -1.83304 l 1.5875,-0.91651 v -1.83304 l -1.5875,-0.91651 -1.5874,-0.91652 -1.5875,0.91652 -1.5874,-0.91652 v -1.83303 l -1.5875,-0.91652 -1.5874,0.91652 -1.5875,-0.91652 -1.5874,0.91652 -1.5875,0.91651 v 1.83304 l -1.5874,0.91651 -1.5875,-0.91651 -1.5875,-0.91652 v -1.83303 l -1.5874,-0.91652 v -1.83303 l 1.5874,-0.91652 v -1.83303 l -1.5874,-0.91652 v -1.83303 -1.83304 l 1.5874,-0.91651 1.5875,0.91651 1.5875,-0.91651 1.5874,-0.91652 v -1.83303 l -1.5874,-0.91652 v -1.83303 -1.83304 l 1.5874,-0.91651 v -1.83304 l 1.5875,-0.91651 1.5874,0.91651 1.5875,-0.91651 1.5874,0.91651 v 1.83304 l 1.5875,0.91651 1.5874,-0.91651 1.5875,0.91651 1.5874,-0.91651 1.5875,-0.91652 v -1.83303 l -1.5875,-0.91652 v -1.83303 -1.83304 l 1.5875,-0.91651 v -1.83304 l 1.5874,-0.91651 1.5875,0.91651 1.5874,-0.91651 v -1.83304 l 1.5875,-0.91651 v -1.83304 l -1.5875,-0.91651 v -1.83304 l -1.5874,-0.91651 -1.5875,-0.91652 -1.5874,0.91652 -1.5875,-0.91652 v -1.83303 -1.83304 l 1.5875,-0.91651 v -1.83304 l -1.5875,-0.91651 -1.5874,-0.91652 -1.5875,0.91652 -1.5874,-0.91652 v -1.83303 l -1.5875,-0.91652 -1.5874,0.91652 -1.5875,-0.91652 -1.5874,0.91652 -1.5875,0.91651 v 1.83304 l -1.5874,0.91651 -1.5875,-0.91651 -1.5875,-0.91652 v -1.83303 l -1.5874,-0.91652 v -1.83303 l 1.5874,-0.91652 v -1.83303 l -1.5874,-0.91652 v -1.83303 -1.83304 l 1.5874,-0.91651 1.5875,0.91651 1.5875,-0.91651 1.5874,-0.91652 v -1.83303 l -1.5874,-0.91652 v -1.83303 -1.83304 l 1.5874,-0.91651 v -1.83304 l -1.5874,-0.91651 -1.5875,-0.91652 -1.5875,0.91652 -1.5874,-0.91652 v -1.83303 l -1.5875,-0.91652 -1.5874,0.91652 -1.5875,-0.91652 -1.5874,0.91652 -1.5875,0.91651 v 1.83304 l -1.5874,0.91651 -1.5875,-0.91651 -1.5874,-0.91652 v -1.83303 l -1.5875,-0.91652 v -1.83303 l 1.5875,-0.91652 v -1.83303 l -1.5875,-0.91652 v -1.83303 l -1.5874,-0.91652 -1.5875,0.91652 -1.5875,-0.91652 -1.5874,0.91652 -1.5875,0.91651 v 1.83304 l -1.5874,0.91651 -1.5875,-0.91651 -1.5874,-0.91652 v -1.83303 l -1.5875,-0.91652 -1.5874,0.91652 -1.5875,0.91651 v 1.83304 l -1.5874,0.91651 -1.5875,-0.91651 -1.5874,0.91651 v 1.83304 l -1.5875,0.91651 v 1.83304 1.83303 l 1.5875,0.91652 v -1.83304 l 1.5874,-0.91651 1.5875,-0.91652 1.5874,0.91652 1.5875,-0.91652 1.5874,0.91652 v 1.83303 l 1.5875,0.91652 1.5874,-0.91652 1.5875,0.91652 1.5874,0.91651 v 1.83304 l -1.5874,0.91651 v 1.83304 1.83303 l 1.5874,0.91652 1.5875,-0.91652 1.5874,0.91652 1.5875,0.91651 v 1.83304 l 1.5875,0.91651 v 1.83304 l -1.5875,0.91651 v 1.83304 l -1.5875,0.91651 -1.5874,-0.91651 -1.5875,0.91651 v 1.83304 l -1.5874,0.91651 v 1.83304 1.83303 l 1.5874,0.91652 1.5875,-0.91652 1.5874,0.91652 1.5875,0.91651 v 1.83304 l 1.5875,0.91651 v 1.83304 l -1.5875,0.91651 v 1.83304 l 1.5875,0.91651 v 1.83304 1.83303 l -1.5875,0.91652 -1.5875,-0.91652 -1.5874,0.91652 -1.5875,0.91651 v 1.83304 l -1.5874,0.91651 -1.5875,-0.91651 -1.5874,-0.91652 v -1.83303 l -1.5875,-0.91652 -1.5874,0.91652 -1.5875,0.91651 v 1.83304 l -1.5874,0.91651 -1.5875,-0.91651 -1.5874,0.91651 v 1.83304 l -1.5875,0.91651 v 1.83304 1.83303 l 1.5875,0.91652 1.5874,-0.91652 1.5875,0.91652 1.5874,0.91651 v 1.83304 l 1.5875,0.91651 v 1.83304 l -1.5875,0.91651 v 1.83304 l 1.5875,0.91651 v 1.83304 1.83303 l -1.5875,0.91652 -1.5874,-0.91652 -1.5875,0.91652 -1.5874,0.91651 v 1.83304 l 1.5874,0.91651 v 1.83304 1.83303 l -1.5874,0.91652 v 1.83303 l -1.5875,0.91652 -1.5874,-0.91652 -1.5875,0.91652 -1.5875,-0.91652 v -1.83303 l -1.5874,-0.91652 -1.5875,0.91652 -1.5874,-0.91652 -1.5875,0.91652 -1.5874,0.91651 v 1.83304 l -1.5875,0.91651 -1.5874,-0.91651 -1.5875,-0.91652 v -1.83303 l -1.5874,-0.91652 v -1.83303 l 1.5874,-0.91652 v -1.83303 l -1.5874,-0.91652 v -1.83303 l -1.5875,-0.91652 -1.5874,0.91652 -1.5875,-0.91652 -1.5874,0.91652 -1.5875,0.91651 v 1.83304 l -1.5875,0.91651 -1.5874,-0.91651 -1.5875,-0.91652 v -1.83303 l -1.5874,-0.91652 -1.5875,0.91652 -1.5874,0.91651 v 1.83304 l -1.5875,0.91651 -1.5874,-0.91651 -1.5875,0.91651 v 1.83304 l -1.5874,0.91651 v 1.83304 1.83303 l 1.5874,0.91652 1.5875,-0.91652 1.5874,0.91652 1.5875,0.91651 v 1.83304 l 1.5874,0.91651 v 1.83304 l -1.5874,0.91651 v 1.83304 l 1.5874,0.91651 v 1.83304 1.83303 l -1.5874,0.91652 -1.5875,-0.91652 -1.5874,0.91652 -1.5875,0.91651 v 1.83304 l 1.5875,0.91651 v 1.83304 1.83303 l -1.5875,0.91652 v 1.83303 l -1.5874,0.91652 -1.5875,-0.91652 -1.5874,0.91652 -1.5875,-0.91652 v -1.83303 l -1.5875,-0.91652 -1.5874,0.91652 -1.5875,-0.91652 -1.5874,0.91652 -1.5875,0.91651 v 1.83304 l 1.5875,0.91651 v 1.83304 1.83303 l -1.5875,0.91652 v 1.83303 l -1.5874,0.91652 -1.5875,-0.91652 -1.5874,0.91652 v 1.83303 l -1.5875,0.91652 v 1.83303 l 1.5875,0.91652 v 1.83303 l 1.5874,0.91652 1.5875,0.91651 1.5874,-0.91651 1.5875,0.91651 v 1.83304 1.83303 l -1.5875,0.91652 v 1.83303 l 1.5875,0.91652 1.5874,0.91651 1.5875,-0.91651 1.5874,0.91651 v 1.83304 l 1.5875,0.91651 1.5875,-0.91651 1.5874,0.91651 1.5875,-0.91651 1.5874,-0.91652 v -1.83303 l 1.5875,-0.91652 1.5874,0.91652 1.5875,0.91651 v 1.83304 l 1.5874,0.91651 v 1.83304 l -1.5874,0.91651 v 1.83304 l 1.5874,0.91651 v 1.83304 1.83303 l -1.5874,0.91652 -1.5875,-0.91652 -1.5874,0.91652 -1.5875,0.91651 v 1.83304 l 1.5875,0.91651 v 1.83304 1.83303 l -1.5875,0.91652 v 1.83303 l 1.5875,0.91652 1.5874,0.91651 1.5875,-0.91651 1.5874,0.91651 v 1.83304 l 1.5875,0.91651 1.5874,-0.91651 1.5875,0.91651 1.5874,-0.91651 1.5875,-0.91652 v -1.83303 l 1.5875,-0.91652 1.5874,0.91652 1.5875,0.91651 v 1.83304 l 1.5874,0.91651 v 1.83304 l -1.5874,0.91651 v 1.83304 l 1.5874,0.91651 v 1.83304 l 1.5875,0.91651 1.5874,-0.91651 1.5875,0.91651 1.5874,-0.91651 1.5875,-0.91652 v -1.83303 l 1.5874,-0.91652 1.5875,0.91652 1.5874,0.91651 v 1.83304 l 1.5875,0.91651 1.5874,-0.91651 1.5875,-0.91652 v -1.83303 l 1.5875,-0.91652 1.5874,0.91652 1.5875,-0.91652 v -1.83303 l 1.5874,-0.91652 v -1.83303 -1.83304 l -1.5874,-0.91651"
     inkscape:connector-curvature="0" />
  <path
     inkscape:connector-curvature="0"
     d="m 179.37505,-154.55048 42.85353,-74.22471 -42.85353,-74.22482 -42.85356,74.22482 42.85356,74.22471"
     style="fill:none;fill-opacity:1;stroke:#000000;stroke-width:2.5;stroke-linecap:round;stroke-linejoin:round;stroke-miterlimit:4;stroke-dasharray:none;stroke-dashoffset:0;stroke-opacity:1"
     id="path5045"
     sodipodi:nodetypes="ccccc" />
</svg>
